<svg width="32" height="32" viewBox="0 0 32 32" fill="none" xmlns="http://www.w3.org/2000/svg">
<path d="M25.333 14.6666H9.51967L14.3597 8.85325C14.586 8.58096 14.6949 8.22992 14.6624 7.87736C14.6299 7.52479 14.4586 7.19957 14.1863 6.97325C13.9141 6.74694 13.563 6.63805 13.2104 6.67056C12.8579 6.70307 12.5327 6.8743 12.3063 7.14659L5.63967 15.1466C5.59482 15.2102 5.55471 15.2771 5.51967 15.3466C5.51967 15.4133 5.51967 15.4533 5.42634 15.5199C5.36591 15.6728 5.33426 15.8355 5.33301 15.9999C5.33426 16.1643 5.36591 16.327 5.42634 16.4799C5.42634 16.5466 5.42634 16.5866 5.51967 16.6533C5.55471 16.7228 5.59482 16.7896 5.63967 16.8533L12.3063 24.8533C12.4317 25.0038 12.5887 25.1248 12.7661 25.2078C12.9436 25.2907 13.1371 25.3336 13.333 25.3333C13.6445 25.3339 13.9465 25.2254 14.1863 25.0266C14.3214 24.9147 14.433 24.7772 14.5148 24.6221C14.5966 24.4669 14.647 24.2972 14.6631 24.1226C14.6792 23.9479 14.6606 23.7718 14.6086 23.6043C14.5565 23.4369 14.4719 23.2813 14.3597 23.1466L9.51967 17.3333H25.333C25.6866 17.3333 26.0258 17.1928 26.2758 16.9427C26.5259 16.6927 26.6663 16.3535 26.6663 15.9999C26.6663 15.6463 26.5259 15.3072 26.2758 15.0571C26.0258 14.8071 25.6866 14.6666 25.333 14.6666Z" fill="black"/>
</svg>
