<svg width="60" height="60" viewBox="0 0 60 60" fill="none" xmlns="http://www.w3.org/2000/svg">
<g clip-path="url(#clip0)">
<path d="M59.5814 21.5538L52.8781 4.12523C51.6079 0.83052 47.9072 -0.810589 44.6125 0.459641C44.5647 0.478123 44.517 0.497104 44.4695 0.516709L10.971 14.4028C7.78134 15.7113 6.21366 19.3218 7.43556 22.5457L8.35664 25.0042H6.24376C2.79708 25.0081 0.00387113 27.8013 0 31.248V53.7255C0.00387113 57.1722 2.79708 59.9654 6.24376 59.9693H48.7013C52.148 59.9654 54.9412 57.1722 54.9451 53.7255V31.248C54.9431 30.9091 54.913 30.5709 54.8551 30.237L56.015 29.7675C59.2331 28.4484 60.8148 24.8058 59.5814 21.5538ZM6.24376 27.0023H48.7013C50.9436 27.0087 52.7932 28.7598 52.9221 30.9984H2.02298C2.15185 28.7597 4.0015 27.0086 6.24376 27.0023ZM16.2847 20.9844L22.962 17.6447L24.3347 21.0783L17.6573 24.4169L16.2847 20.9844ZM52.9471 53.7256C52.9443 56.0694 51.0451 57.9686 48.7013 57.9714H6.24376C3.89998 57.9686 2.00075 56.0694 1.998 53.7256V40.9884H52.9471V53.7256ZM52.9471 38.9904H1.998V32.9964H52.9471V38.9904ZM55.2657 27.9214L54.2218 28.344C53.1435 26.2931 51.0185 25.0076 48.7013 25.0043H20.951L26.0509 22.4539C26.516 22.2218 26.7254 21.6718 26.5325 21.1892L24.4136 15.8945C24.2087 15.3822 23.6274 15.133 23.1151 15.3378C23.0893 15.3481 23.0639 15.3595 23.0391 15.372L14.5686 19.6097C14.1039 19.8423 13.895 20.3921 14.088 20.8745L15.7404 25.0043H10.4895L9.30669 21.8495C8.46816 19.6345 9.54521 17.1544 11.7363 16.2551L45.2338 2.36898C47.4731 1.44041 50.0413 2.50297 50.97 4.74236C50.9845 4.7772 50.9985 4.81229 51.012 4.8475L57.7153 22.2761C58.5633 24.5107 57.477 27.0142 55.2657 27.9214Z" fill="#64245C"/>
<path d="M35.9359 55.1626C37.7975 56.2442 40.0964 56.2442 41.958 55.1626C44.8204 56.8256 48.489 55.8532 50.1519 52.9908C51.8149 50.1284 50.8425 46.4599 47.9801 44.7969C47.0614 44.2632 46.0174 43.9832 44.955 43.9857C43.9018 43.9862 42.8676 44.2661 41.958 44.7969C39.0956 43.1339 35.427 44.1062 33.7641 46.9686C32.1011 49.8311 33.0735 53.4996 35.9359 55.1626ZM43.6283 46.2276C44.0533 46.071 44.5021 45.9886 44.955 45.9838C47.1619 45.9838 48.951 47.7729 48.951 49.9798C48.951 52.1868 47.1619 53.9758 44.955 53.9758C44.5021 53.9711 44.0533 53.8887 43.6283 53.7321C45.3971 51.5431 45.3971 48.4164 43.6283 46.2276ZM41.958 47.3645C43.29 48.8537 43.29 51.106 41.958 52.5952C40.6259 51.106 40.6259 48.8536 41.958 47.3645ZM38.961 45.9838C39.4139 45.9885 39.8627 46.071 40.2877 46.2276C38.5189 48.4164 38.5189 51.5433 40.2877 53.7321C39.8627 53.8887 39.4139 53.9711 38.961 53.9758C36.7541 53.9758 34.965 52.1868 34.965 49.9798C34.965 47.7728 36.7541 45.9838 38.961 45.9838Z" fill="#64245C"/>
<path d="M42.1401 20.6474L42.9517 22.4732L52.4822 18.2367L51.6706 16.4109L42.1401 20.6474Z" fill="#64245C"/>
<path d="M49.5439 12.1814L35.7778 18.5353L36.6148 20.3486L50.3808 13.9946L49.5439 12.1814Z" fill="#64245C"/>
</g>
<defs>
<clipPath id="clip0">
<rect width="60" height="60" fill="white"/>
</clipPath>
</defs>
</svg>
