<svg width="50" height="12" viewBox="0 0 50 12" fill="none" xmlns="http://www.w3.org/2000/svg">
<path d="M4.73032 11.5362C3.92098 11.5362 3.14199 11.43 2.39336 11.2176C1.64472 10.995 1.02254 10.6915 0.526819 10.3071L1.28557 8.62262C2.31748 9.3409 3.47585 9.70005 4.76067 9.70005C5.42838 9.70005 5.93927 9.59382 6.29336 9.38137C6.65756 9.1588 6.83966 8.8553 6.83966 8.47086C6.83966 8.1269 6.67273 7.8588 6.33888 7.66658C6.01515 7.47437 5.43343 7.28721 4.59375 7.10511C3.65289 6.91289 2.89919 6.6802 2.33266 6.40705C1.77624 6.1339 1.36651 5.80005 1.10347 5.40549C0.850554 5.00083 0.724095 4.50511 0.724095 3.91833C0.724095 3.27086 0.901138 2.69421 1.25522 2.18837C1.61943 1.68254 2.12526 1.28798 2.77273 1.00472C3.4202 0.71133 4.16884 0.564638 5.01865 0.564638C5.7774 0.564638 6.50581 0.675922 7.20386 0.89849C7.91203 1.12106 8.47351 1.4195 8.8883 1.79382L8.12954 3.47826C7.14822 2.75997 6.11631 2.40082 5.03382 2.40082C4.4167 2.40082 3.9311 2.52223 3.57701 2.76503C3.22293 2.99771 3.04589 3.32145 3.04589 3.73623C3.04589 3.97904 3.11164 4.18137 3.24316 4.34324C3.3848 4.49499 3.61242 4.63156 3.92604 4.75297C4.24978 4.87437 4.70503 5.00083 5.2918 5.13234C6.66768 5.43584 7.65406 5.82534 8.25094 6.30083C8.85795 6.77631 9.16145 7.4339 9.16145 8.27359C9.16145 9.28526 8.77196 10.0845 7.99297 10.6713C7.21398 11.2479 6.12643 11.5362 4.73032 11.5362ZM26.2292 0.701214L22.4202 11.3997H20.5233L18.0498 4.31289L15.5459 11.3997H13.649L9.85524 0.701214H12.2529L14.6961 8.09149L17.291 0.701214H18.9451L21.449 8.16736L23.9833 0.701214H26.2292ZM27.5681 0.701214H29.9354V11.3997H27.5681V0.701214ZM32.0584 0.701214H39.2818V2.56775H34.3954V5.02612H38.9783V6.89265H34.3954V11.3997H32.0584V0.701214ZM43.4977 2.62845H40.144V0.701214H49.2187V2.62845H45.865V11.3997H43.4977V2.62845Z" fill="#353B50"/>
</svg>
