<svg width="22" height="31" viewBox="0 0 22 31" fill="none" xmlns="http://www.w3.org/2000/svg">
<path fill-rule="evenodd" clip-rule="evenodd" d="M10.9022 29.1038C11.8971 29.1038 21.6622 18.8169 21.6622 11.7143C21.6622 4.61158 16.8448 0.349976 10.9022 0.349976C5.03205 0.349976 0.144351 4.61158 0.144351 11.411C0.144351 11.5113 0.142212 11.6124 0.142212 11.7143C0.142212 20.0748 9.90729 29.1038 10.9022 29.1038Z" fill="#353B50"/>
<path fill-rule="evenodd" clip-rule="evenodd" d="M10.9018 17.3967C13.8731 17.3967 16.2818 14.8528 16.2818 11.7146C16.2818 8.57645 13.8731 6.03247 10.9018 6.03247C7.93056 6.03247 5.52185 8.57645 5.52185 11.7146C5.52185 14.8528 7.93056 17.3967 10.9018 17.3967Z" fill="white" stroke="#60667B" stroke-width="1.75478"/>
</svg>
