<svg width="19" height="25" viewBox="0 0 19 25" fill="none" xmlns="http://www.w3.org/2000/svg">
<g opacity="0.2">
<path fill-rule="evenodd" clip-rule="evenodd" d="M9.32533 24.1086C10.1876 24.1086 18.6507 15.6983 18.6507 9.89127C18.6507 4.08429 14.4756 0.600098 9.32533 0.600098C4.23786 0.600098 0.00185424 4.08429 0.00185424 9.64333C0.00185424 9.72534 0 9.80797 0 9.89127C0 16.7266 8.46306 24.1086 9.32533 24.1086Z" fill="#606470"/>
<path fill-rule="evenodd" clip-rule="evenodd" d="M9.32539 14.5368C11.9005 14.5368 13.9881 12.4569 13.9881 9.89119C13.9881 7.32551 11.9005 5.24561 9.32539 5.24561C6.75027 5.24561 4.66272 7.32551 4.66272 9.89119C4.66272 12.4569 6.75027 14.5368 9.32539 14.5368Z" fill="white" stroke="#606470" stroke-width="1.25465"/>
</g>
</svg>
