<svg width="64" height="64" viewBox="0 0 64 64" fill="none" xmlns="http://www.w3.org/2000/svg">
<g clip-path="url(#clip0)">
<path d="M58.8821 25.0483L31.8752 25.092L5.27595 25.1345C4.37807 24.6168 3.99482 18.398 4.51257 17.5002L13.5609 1.80187C14.2023 0.69025 15.3966 0 16.6796 0H47.3222C48.6027 0 49.7968 0.689 50.4383 1.79813L59.6155 17.6628C60.1343 18.5594 59.7786 24.5293 58.8821 25.0483Z" fill="#FFD399"/>
<path d="M58.8824 25.0483L31.8262 25.092L31.8755 0H47.3225C48.603 0 49.7972 0.689 50.4387 1.79813L59.6158 17.6628C60.1347 18.5594 59.7789 24.5293 58.8824 25.0483Z" fill="#FFC477"/>
<path d="M33.7514 0V20.15L31.8758 20.145L30 20.1388V0H33.7514Z" fill="#FFFCE5"/>
<path d="M33.7506 0V20.15L31.875 20.145V0H33.7506Z" fill="#FFE89C"/>
<path d="M59.8685 18.8947V59.5899C59.8685 62.022 57.889 64.0002 55.4569 64.0002H8.54444C7.80294 64.0002 7.10269 63.8164 6.48869 63.4912C5.34456 62.886 4.49794 61.7943 4.22656 60.4926C4.16531 60.2012 4.13281 59.8986 4.13281 59.5897V19.0435C4.13281 17.2891 5.56081 15.8611 7.31644 15.8611H56.8335C57.2424 15.8611 57.6313 15.9423 57.9877 16.09C59.0907 16.5438 59.8685 17.6305 59.8685 18.8947Z" fill="#FFC477"/>
<path d="M59.8679 18.8947V59.5899C59.8679 62.022 57.8884 64.0002 55.4563 64.0002H31.875V15.8611H56.833C58.5061 15.8611 59.8679 17.2216 59.8679 18.8947Z" fill="#FFB655"/>
<path d="M38.4403 45.9689L33.3034 52.4913C32.9583 52.9301 32.4555 53.1703 31.9391 53.2003C31.9366 53.2003 31.9341 53.2003 31.9316 53.2015C31.9129 53.2028 31.8941 53.204 31.8754 53.204C31.8591 53.2053 31.8441 53.2065 31.8279 53.2065H31.7879C31.7529 53.2065 31.7179 53.2028 31.6829 53.2003H31.6741C31.1514 53.169 30.6425 52.9214 30.2986 52.4725L25.2955 45.9489C24.6652 45.1274 24.8204 43.9507 25.6431 43.3192C26.4646 42.6889 27.6426 42.8453 28.2729 43.6668L29.9323 45.8313V28.53C29.9323 27.4934 30.7725 26.6543 31.808 26.6543C31.8305 26.6543 31.853 26.6543 31.8755 26.6555C32.8809 26.6905 33.6836 27.5159 33.6836 28.53V45.9453L35.493 43.6482C36.1345 42.8342 37.3136 42.694 38.1278 43.3343C38.9405 43.9758 39.0818 45.1549 38.4403 45.9689Z" fill="#B5B51F"/>
<path d="M38.4399 45.9689L33.303 52.4912C32.9579 52.9301 32.4551 53.1702 31.9387 53.2002C31.9362 53.2002 31.9337 53.2002 31.9312 53.2015C31.9125 53.2027 31.8937 53.204 31.875 53.204V26.6555C32.8804 26.6905 33.6831 27.5159 33.6831 28.53V45.9452L35.4925 43.6481C36.134 42.8341 37.3131 42.694 38.1272 43.3343C38.9401 43.9758 39.0814 45.1549 38.4399 45.9689Z" fill="#98981A"/>
</g>
<defs>
<clipPath id="clip0">
<rect width="64" height="64" fill="white"/>
</clipPath>
</defs>
</svg>
