<svg width="64" height="64" viewBox="0 0 64 64" fill="none" xmlns="http://www.w3.org/2000/svg">
<g clip-path="url(#clip0)">
<path d="M58.8821 25.0483L31.8752 25.092L5.27595 25.1345C4.37807 24.6168 3.99482 18.398 4.51257 17.5002L13.5609 1.80187C14.2023 0.69025 15.3966 0 16.6796 0H47.3222C48.6027 0 49.7968 0.689 50.4383 1.79813L59.6155 17.6628C60.1343 18.5594 59.7786 24.5293 58.8821 25.0483Z" fill="#FFD399"/>
<path d="M58.8824 25.0483L31.8262 25.092L31.8755 0H47.3225C48.603 0 49.7972 0.689 50.4387 1.79813L59.6158 17.6628C60.1347 18.5594 59.7789 24.5293 58.8824 25.0483Z" fill="#FFC477"/>
<path d="M33.7514 0V20.15L31.8758 20.145L30 20.1388V0H33.7514Z" fill="#FFFCE5"/>
<path d="M33.7506 0V20.15L31.875 20.145V0H33.7506Z" fill="#FFE89C"/>
<path d="M59.8686 18.8945V59.5896C59.8686 62.0217 57.8891 64 55.4569 64H8.54444C7.80294 64 7.10269 63.8161 6.48869 63.491C5.34456 62.8857 4.49794 61.7941 4.22656 60.4924C4.16531 60.201 4.13281 59.8984 4.13281 59.5895V19.0432C4.13281 17.2888 5.56081 15.8608 7.31644 15.8608H56.8336C57.2424 15.8608 57.6313 15.9421 57.9877 16.0897C59.0907 16.5436 59.8686 17.6302 59.8686 18.8945Z" fill="#FFC477"/>
<path d="M59.8679 18.8945V59.5896C59.8679 62.0217 57.8884 64 55.4563 64H31.875V15.8608H56.833C58.5061 15.8608 59.8679 17.2213 59.8679 18.8945Z" fill="#FFB655"/>
<path d="M38.0568 36.5415C37.2353 37.1718 36.0573 37.0154 35.4271 36.1939L33.7677 34.0294V51.3308C33.7677 52.3674 32.9273 53.2065 31.8919 53.2065H31.8758C31.8583 53.2065 31.8421 53.2065 31.8246 53.2053C30.8192 53.1703 30.0164 52.3449 30.0164 51.3308V33.9157L28.2071 36.2128C27.5656 37.0268 26.3864 37.1669 25.5723 36.5267C24.7596 35.8852 24.6182 34.706 25.2597 33.8919L30.3966 27.3695C30.7417 26.9307 31.2444 26.6905 31.7608 26.6605C31.7633 26.6605 31.7658 26.6605 31.7683 26.6593C31.7871 26.658 31.8058 26.6568 31.8246 26.6568C31.8408 26.6555 31.8558 26.6543 31.8721 26.6543H31.9121C31.9471 26.6543 31.9821 26.658 32.0171 26.6605H32.0258C32.5486 26.6918 33.0574 26.9394 33.4013 27.3883L38.4044 33.9119C39.0347 34.7334 38.8796 35.9102 38.0568 36.5415Z" fill="#B5B51F"/>
<path d="M38.056 36.5417C37.2345 37.1719 36.0565 37.0156 35.4263 36.1941L33.7669 34.0296V51.3309C33.7669 52.3676 32.9265 53.2067 31.8911 53.2067H31.875V26.6543H31.9112C31.9462 26.6543 31.9813 26.658 32.0163 26.6605H32.025C32.5478 26.6918 33.0566 26.9394 33.4005 27.3883L38.4036 33.9119C39.0339 34.7336 38.8788 35.9103 38.056 36.5417Z" fill="#98981A"/>
</g>
<defs>
<clipPath id="clip0">
<rect width="64" height="64" fill="white"/>
</clipPath>
</defs>
</svg>
