<svg width="255" height="256" viewBox="0 0 255 256" fill="none" xmlns="http://www.w3.org/2000/svg">
<path opacity="0.185454" fill-rule="evenodd" clip-rule="evenodd" d="M127.5 254.562C197.211 254.562 253.722 198.05 253.722 128.34C253.722 58.6289 197.211 2.11719 127.5 2.11719C57.7893 2.11719 1.27759 58.6289 1.27759 128.34C1.27759 198.05 57.7893 254.562 127.5 254.562Z" stroke="#80C050" stroke-width="2.29022"/>
<path opacity="0.700637" fill-rule="evenodd" clip-rule="evenodd" d="M128.265 225.493C181.499 225.493 224.653 182.338 224.653 129.105C224.653 75.8712 181.499 32.7168 128.265 32.7168C75.0313 32.7168 31.877 75.8712 31.877 129.105C31.877 182.338 75.0313 225.493 128.265 225.493Z" stroke="#80C050" stroke-width="2.29022"/>
<path fill-rule="evenodd" clip-rule="evenodd" d="M127.5 187.243C160.032 187.243 186.404 160.871 186.404 128.339C186.404 95.8077 160.032 69.4355 127.5 69.4355C94.9683 69.4355 68.5962 95.8077 68.5962 128.339C68.5962 160.871 94.9683 187.243 127.5 187.243Z" stroke="#80C050" stroke-width="3.05363"/>
<path d="M140.505 119.925L123.675 136.754L116.025 129.105" stroke="#80C050" stroke-width="3.05363" stroke-linecap="round" stroke-linejoin="round"/>
</svg>
