<svg width="60" height="60" viewBox="0 0 60 60" fill="none" xmlns="http://www.w3.org/2000/svg">
<path d="M1 36.25H7.063C5.763 38.7787 5 41.7775 5 45V50C5 50.69 5.448 51.25 6 51.25H12.069C12.564 56.175 15.928 60 20 60C24.072 60 27.436 56.175 27.931 51.25H34H43.062C43.556 56.1762 46.928 60 51 60C55.072 60 58.436 56.175 58.931 51.25H59C59.552 51.25 60 50.69 60 50V41.8988C60 36.3663 57.771 31.29 54.037 28.32C51.045 25.94 49.217 21.9538 49.036 17.56C50.41 19.0662 52.277 20 54 20C54.552 20 55 19.44 55 18.75V6.25C55 5.56 54.552 5 54 5C51.44 5 48.558 7.05375 47.462 10H44H39C38.448 10 38 10.56 38 11.25V16.25C38 16.94 38.448 17.5 39 17.5H43V43.75H34.949C34.626 38.4813 32.289 33.9187 28.896 31.25H35C35.552 31.25 36 30.69 36 30V1.25C36 0.56 35.552 0 35 0H1C0.448 0 0 0.56 0 1.25V30V35C0 35.69 0.448 36.25 1 36.25ZM51 57.5C48.033 57.5 45.569 54.7912 45.09 51.25H47.142C47.589 53.4 49.142 55 51 55C52.858 55 54.411 53.4 54.858 51.25H56.91C56.431 54.7912 53.967 57.5 51 57.5ZM49.278 51.25H52.722C52.375 51.9937 51.737 52.5 51 52.5C50.263 52.5 49.625 51.9937 49.278 51.25ZM53 7.64V17.36C51.01 16.8225 49 14.8025 49 12.5C49 10.1975 51.01 8.1775 53 7.64ZM45 12.5H47V16.8512C47 22.3463 49.203 27.3863 52.891 30.3638C49.502 31.525 47 35.4 47 40H49C49 35.8737 51.679 32.5163 54.978 32.5013C56.898 34.9987 58 38.3338 58 41.8988V48.75H45V12.5ZM40 15V12.5H43V15H40ZM43 48.75H35V46.25H43V48.75ZM2 33.75V31.25H11.103C10.202 31.9587 9.375 32.795 8.64 33.75H2ZM29 48.75H11V47.5C11 41.2975 15.038 36.25 20 36.25C24.962 36.25 29 41.2975 29 47.5V48.75ZM21.722 51.25C21.375 51.9937 20.737 52.5 20 52.5C19.263 52.5 18.625 51.9937 18.278 51.25H21.722ZM20 57.5C17.033 57.5 14.569 54.7912 14.09 51.25H16.142C16.589 53.4 18.142 55 20 55C21.858 55 23.411 53.4 23.858 51.25H25.91C25.431 54.7912 22.967 57.5 20 57.5ZM33 45V48.75H31V47.5C31 39.9187 26.065 33.75 20 33.75C13.935 33.75 9 39.9187 9 47.5V48.75H7V45C7 37.4188 11.935 31.25 18 31.25H22C28.065 31.25 33 37.4188 33 45ZM34 2.5V28.75H22H18H2V2.5H34Z" fill="#64245C"/>
</svg>
