<svg width="64" height="64" viewBox="0 0 64 64" fill="none" xmlns="http://www.w3.org/2000/svg">
<g clip-path="url(#clip0)">
<path d="M58.8821 25.0483L31.8752 25.092L5.27595 25.1345C4.37807 24.6168 3.99482 18.398 4.51257 17.5002L13.5609 1.80187C14.2023 0.69025 15.3966 0 16.6796 0H47.3222C48.6027 0 49.7968 0.689 50.4383 1.79813L59.6154 17.6628C60.1343 18.5594 59.7786 24.5293 58.8821 25.0483Z" fill="#FFD399"/>
<path d="M58.8824 25.0483L31.8262 25.092L31.8755 0H47.3225C48.603 0 49.7972 0.689 50.4387 1.79813L59.6158 17.6628C60.1347 18.5594 59.7789 24.5293 58.8824 25.0483Z" fill="#FFC477"/>
<path d="M33.7514 0V20.15L31.8758 20.145L30 20.1388V0H33.7514Z" fill="#FFFCE5"/>
<path d="M33.7506 0V20.15L31.875 20.145V0H33.7506Z" fill="#FFE89C"/>
<path d="M59.8686 18.8945V59.5896C59.8686 62.0217 57.8891 64 55.4569 64H8.54444C7.80294 64 7.10269 63.8161 6.48869 63.491C5.34456 62.8857 4.49794 61.7941 4.22656 60.4923C4.16531 60.201 4.13281 59.8983 4.13281 59.5895V19.0432C4.13281 17.2888 5.56081 15.8608 7.31644 15.8608H56.8336C57.2424 15.8608 57.6313 15.9421 57.9877 16.0897C59.0907 16.5436 59.8686 17.6302 59.8686 18.8945Z" fill="#FFC477"/>
<path d="M59.8679 18.8945V59.5896C59.8679 62.0217 57.8884 64 55.4562 64H31.875V15.8608H56.833C58.5061 15.8608 59.8679 17.2213 59.8679 18.8945Z" fill="#FFB655"/>
<path d="M49.4597 32.594C49.4597 33.6306 48.6193 34.4698 47.5839 34.4698H16.1648C15.1294 34.4698 14.2891 33.6308 14.2891 32.594C14.2891 31.5586 15.1293 30.7183 16.1648 30.7183H47.5839C48.6193 30.7183 49.4597 31.5586 49.4597 32.594Z" fill="#FFFCE5"/>
<path d="M44.4579 47.4734C44.4579 48.51 43.6175 49.3492 42.5821 49.3492H21.1668C20.1314 49.3492 19.291 48.5102 19.291 47.4734C19.291 46.438 20.1313 45.5977 21.1668 45.5977H42.5823C43.6175 45.5977 44.4579 46.438 44.4579 47.4734Z" fill="#FFFCE5"/>
<path d="M40.2566 39.7991C40.2566 40.8357 39.4176 41.6748 38.3809 41.6748H25.366C24.3294 41.6748 23.4902 40.8358 23.4902 39.7991C23.4902 38.7637 24.3292 37.9233 25.366 37.9233H38.3809C39.4175 37.9235 40.2566 38.7637 40.2566 39.7991Z" fill="#FFFCE5"/>
<path d="M38.3824 41.6747H31.875V37.9233H38.3824C39.419 37.9233 40.2581 38.7637 40.2581 39.7991C40.2581 40.8356 39.419 41.6747 38.3824 41.6747Z" fill="#FFE89C"/>
<path d="M44.4584 47.4732C44.4584 48.5098 43.618 49.3489 42.5826 49.3489H31.875V45.5974H42.5827C43.618 45.5974 44.4584 46.4378 44.4584 47.4732Z" fill="#FFE89C"/>
<path d="M49.4603 32.5939C49.4603 33.6305 48.6199 34.4697 47.5845 34.4697H31.875V30.7183H47.5846C48.6199 30.7181 49.4603 31.5585 49.4603 32.5939Z" fill="#FFE89C"/>
</g>
<defs>
<clipPath id="clip0">
<rect width="64" height="64" fill="white"/>
</clipPath>
</defs>
</svg>
