<svg width="60" height="60" viewBox="0 0 60 60" fill="none" xmlns="http://www.w3.org/2000/svg">
<g clip-path="url(#clip0)">
<path d="M13.2265 49.5787C10.8026 49.5787 8.83055 47.6067 8.83055 45.1829C8.83055 42.759 10.8026 40.7871 13.2265 40.7871H30.0495C34.4123 40.7871 37.9615 37.2378 37.9615 32.875C37.9615 28.5122 34.4122 24.9631 30.0495 24.9631H18.1853V28.4792H30.0495C32.4734 28.4792 34.4454 30.4512 34.4454 32.8752C34.4454 35.2991 32.4734 37.271 30.0495 37.271H13.2265C8.86372 37.271 5.31445 40.8202 5.31445 45.1829C5.31445 49.5456 8.86383 53.0948 13.2265 53.0948H41.8146V49.5787H13.2265Z" fill="#64245C"/>
<path d="M16.2834 8.96706C12.5633 5.24682 6.51006 5.24682 2.78994 8.96706C-0.930305 12.6873 -0.930305 18.7403 2.78994 22.4605L9.53667 29.2074L16.2835 22.4605C20.0036 18.7404 20.0036 12.6873 16.2834 8.96706ZM13.7973 19.9743L9.53679 24.2346L5.27631 19.9743C2.92705 17.625 2.92705 13.8026 5.27631 11.4533C6.45088 10.2789 7.99389 9.6914 9.53679 9.6914C11.0797 9.6914 12.6226 10.2787 13.7973 11.4533C16.1465 13.8027 16.1465 17.625 13.7973 19.9743Z" fill="#64245C"/>
<path d="M9.49079 11.4744C7.18782 11.4744 5.31445 13.3479 5.31445 15.6508C5.31445 17.9536 7.18782 19.8271 9.49079 19.8271C11.7938 19.8271 13.6671 17.9536 13.6671 15.6508C13.6671 13.3479 11.7938 11.4744 9.49079 11.4744ZM9.49079 16.311C9.1268 16.311 8.83055 16.0149 8.83055 15.6508C8.83055 15.2868 9.12657 14.9905 9.49079 14.9905C9.85501 14.9905 10.151 15.2867 10.151 15.6508C10.151 16.0147 9.85477 16.311 9.49079 16.311Z" fill="#64245C"/>
<path d="M57.2098 33.5828C53.4897 29.8626 47.4365 29.8626 43.7164 33.5828C39.9962 37.3031 39.9962 43.3562 43.7164 47.0763L50.4631 53.8232L57.2098 47.0763C60.9301 43.3562 60.9301 37.303 57.2098 33.5828ZM54.7237 44.5902L50.4632 48.8505L46.2027 44.5902C43.8536 42.2409 43.8536 38.4184 46.2027 36.0691C47.3774 34.8943 48.9201 34.3072 50.4632 34.3072C52.006 34.3072 53.5492 34.8946 54.7237 36.0691C57.0727 38.4184 57.0727 42.2409 54.7237 44.5902Z" fill="#64245C"/>
<path d="M50.4171 36.0901C48.1142 36.0901 46.2407 37.9636 46.2407 40.2665C46.2407 42.5693 48.1141 44.4428 50.4171 44.4428C52.72 44.4428 54.5934 42.5693 54.5934 40.2665C54.5934 37.9636 52.72 36.0901 50.4171 36.0901ZM50.4171 40.9267C50.0531 40.9267 49.7568 40.6306 49.7568 40.2665C49.7568 39.9024 50.0528 39.6062 50.4171 39.6062C50.7813 39.6062 51.0773 39.9024 51.0773 40.2665C51.0772 40.6306 50.7812 40.9267 50.4171 40.9267Z" fill="#64245C"/>
</g>
<defs>
<clipPath id="clip0">
<rect width="60" height="60" fill="white"/>
</clipPath>
</defs>
</svg>
